<svg width="37" height="37" viewBox="0 0 37 37" fill="none" xmlns="http://www.w3.org/2000/svg">
<path d="M27.0416 1.4165H9.95829C5.24086 1.4165 1.41663 5.24074 1.41663 9.95817V27.0415C1.41663 31.7589 5.24086 35.5832 9.95829 35.5832H27.0416C31.7591 35.5832 35.5833 31.7589 35.5833 27.0415V9.95817C35.5833 5.24074 31.7591 1.4165 27.0416 1.4165Z" fill="black"/>
<path d="M25.3333 17.4236C25.5441 18.8453 25.3013 20.2974 24.6393 21.5732C23.9773 22.8489 22.9299 23.8835 21.6461 24.5297C20.3622 25.1759 18.9073 25.4008 17.4883 25.1725C16.0692 24.9441 14.7583 24.2741 13.742 23.2578C12.7257 22.2415 12.0557 20.9306 11.8273 19.5115C11.599 18.0925 11.8239 16.6376 12.4701 15.3537C13.1163 14.0699 14.1509 13.0225 15.4266 12.3605C16.7024 11.6985 18.1545 11.4557 19.5762 11.6665C21.0265 11.8816 22.3691 12.5573 23.4058 13.594C24.4425 14.6307 25.1182 15.9733 25.3333 17.4236Z" fill="black"/>
<path d="M27.8958 9.104H27.9129M9.95829 1.4165H27.0416C31.7591 1.4165 35.5833 5.24074 35.5833 9.95817V27.0415C35.5833 31.7589 31.7591 35.5832 27.0416 35.5832H9.95829C5.24086 35.5832 1.41663 31.7589 1.41663 27.0415V9.95817C1.41663 5.24074 5.24086 1.4165 9.95829 1.4165ZM25.3333 17.4236C25.5441 18.8453 25.3013 20.2974 24.6393 21.5732C23.9773 22.8489 22.9299 23.8835 21.6461 24.5297C20.3622 25.1759 18.9073 25.4008 17.4883 25.1725C16.0692 24.9441 14.7583 24.2741 13.742 23.2578C12.7257 22.2415 12.0557 20.9306 11.8273 19.5115C11.599 18.0925 11.8239 16.6376 12.4701 15.3537C13.1163 14.0699 14.1509 13.0225 15.4266 12.3605C16.7024 11.6985 18.1545 11.4557 19.5762 11.6665C21.0265 11.8816 22.3691 12.5573 23.4058 13.594C24.4425 14.6307 25.1182 15.9733 25.3333 17.4236Z" stroke="#F3FFDE" stroke-width="2.5" stroke-linecap="round" stroke-linejoin="round"/>
</svg>
